HIERARCHY
ROOT pelvis
{
  OFFSET 0 100 0
  CHANNELS 6 Xposition Yposition Zposition Zrotation Xrotation Yrotation
  JOINT pelvis_right_femur
  {
    OFFSET -10.78128 -3.44521 -0.5502486
    CHANNELS 3 Zrotation Xrotation Yrotation
    JOINT right_femur_tibia
    {
      OFFSET -0.8047443 -44.0398 -0.1307829
      CHANNELS 3 Zrotation Xrotation Yrotation
      JOINT right_tibia_foot
      {
        OFFSET 3.006224 -47.83518 -5
        CHANNELS 3 Zrotation Xrotation Yrotation
        End Site
        {
          OFFSET 0 -5 15
        }
      }
    }
  }
  JOINT pelvis_left_femur
  {
    OFFSET 10.78128 -3.44521 -0.5502486
    CHANNELS 3 Zrotation Xrotation Yrotation
    JOINT left_femur_tibia
    {
      OFFSET 0.8047443 -44.0398 -0.1307829
      CHANNELS 3 Zrotation Xrotation Yrotation
      JOINT left_tibia_foot
      {
        OFFSET -4.370144 -48.10324 -4.275266
        CHANNELS 3 Zrotation Xrotation Yrotation
        End Site
        {
          OFFSET 0 -5 15
        }
      }
    }
  }
  JOINT pelvis_spine1
  {
    OFFSET 0 6.468898 -3.129235
    CHANNELS 3 Zrotation Xrotation Yrotation
    JOINT spine1
    {
      OFFSET 0 23.15396 4.99043
      CHANNELS 3 Zrotation Xrotation Yrotation
      JOINT spine2
      {
        OFFSET 0 20.79997 -5.064912
        CHANNELS 3 Zrotation Xrotation Yrotation
        JOINT neck
        {
          OFFSET 0 14.38658 9.616178
          CHANNELS 3 Zrotation Xrotation Yrotation
          End Site
          {
            OFFSET 0 20 0
          }
        }
      }
      JOINT right_manubrium
      {
        OFFSET -5.722621 16.35077 3.967754
        CHANNELS 3 Zrotation Xrotation Yrotation
        JOINT right_clavicle
        {
          OFFSET -13.16364 1.694482 -4.693211
          CHANNELS 3 Zrotation Xrotation Yrotation
          JOINT right_humerus
          {
            OFFSET -28.5034 -0.3100689 -2.792744
            CHANNELS 3 Zrotation Xrotation Yrotation
            JOINT right_radius
            {
              OFFSET -25.15693 0.02248979 -1.271978
              CHANNELS 3 Zrotation Xrotation Yrotation
              End Site
              {
                OFFSET -15 0 0
              }
            }
          }
        }
      }
      JOINT left_manubrium
      {
        OFFSET 5.722621 16.35077 3.967754
        CHANNELS 3 Zrotation Xrotation Yrotation
        JOINT left_clavicle
        {
          OFFSET 13.16364 1.694482 -4.693211
          CHANNELS 3 Zrotation Xrotation Yrotation
          JOINT left_humerus
          {
            OFFSET 29.39168 -1.063119 -2.237045
            CHANNELS 3 Zrotation Xrotation Yrotation
            JOINT left_radius
            {
              OFFSET 24.59957 -0.9528479 0.9047498
              CHANNELS 3 Zrotation Xrotation Yrotation
              End Site
              {
                OFFSET 15 -0 -0
              }
            }
          }
        }
      }
    }
  }
}
MOTION
Frames: 17
Frame Time: 0.0416666666667
0 103.5113 0 0.1499701 -1.52408 0.07432313 4.19327 -16.00432 8.605296 -0 35.72699 -0 -6.912107 -12.57092 -2.987515 -6.368965 8.12548 -20.31471 -0 6.262856 -0 9.932734 -15.17274 26.4939 -2.22045 -3.588346 5.213651 1.962468 10.77732 -7.471427 1.792503 21.79293 5.98059 2.186768 -25.6172 9.819596 3.660404 -21.73921 11.23586 87.71737 31.63312 -18.2901 -0 0 16.76291 -8.940733 8.290308 4.817135 6.531552 -20.5665 -1.426997 -92.86179 20.94848 21.68318 0 0 -13.65562 14.68752 15.61689 -2.523223
0.305221 103.8598 2.324556 -0.05392888 -1.189565 0.1634976 4.661148 -18.13897 8.573932 -0 34.63639 -0 -6.847111 -12.19084 -2.937753 -6.238467 9.007464 -20.40324 -0 6.132006 -0 9.342205 -16.17495 26.36038 -2.175212 -3.273718 4.949604 2.019973 10.49678 -7.481259 1.802861 21.71856 6.238841 2.432553 -25.65178 9.963124 3.707221 -21.25975 11.15231 87.72691 31.72137 -18.68309 -0 0 16.42127 -8.750677 8.101735 4.573678 6.845189 -20.66642 -1.322168 -92.83667 21.66035 21.1628 0 0 -14.37628 14.33131 15.72418 -2.106279
0.6516655 103.85 5.479407 -0.7052104 -3.866618 0.2333941 4.613859 -12.17374 5.968847 -0 32.11711 -0 -8.143879 -8.670736 -2.654448 -4.896896 5.588919 -17.34093 -0 8.461867 -0 5.962598 -14.82914 24.29526 -0.9310034 -2.635129 4.497002 1.599836 11.31925 -6.860713 1.997294 22.13744 5.640257 1.807915 -25.10505 9.717726 0.8292856 -22.44466 11.10894 89.20474 25.39608 -16.95937 -0 0 17.03619 -12.75132 8.120412 6.258563 7.160833 -20.83316 -1.691273 -93.48833 18.52143 21.65071 0 0 -9.589252 15.44107 15.46923 -4.963787
1.035452 103.9178 8.883977 -0.7028057 -4.772181 0.3259332 4.370942 -9.010011 5.324646 -0 31.95998 -0 -8.458697 -8.187863 -2.640416 -4.636962 4.042605 -16.55508 -0 9.022212 -0 5.303215 -13.97014 23.91741 -0.6713084 -2.626075 4.580785 1.436766 11.58059 -6.605941 2.082052 22.30316 5.300132 1.479673 -24.91912 9.584977 -0.008017648 -23.0623 11.04498 89.60836 23.70134 -16.14658 -0 0 17.5448 -13.82173 8.155438 6.866394 7.022719 -20.64895 -1.805702 -93.82737 17.59102 22.3097 0 0 -7.84534 15.43993 15.35027 -5.353323
1.441728 103.96 12.5304 -0.7941669 -5.502567 0.4073515 4.357582 -6.879794 4.641718 -0 31.1549 -0 -8.734227 -7.581983 -2.599456 -4.305033 2.841173 -15.77997 -0 9.643637 -0 4.35019 -13.54773 23.48633 -0.4113953 -2.445634 4.52684 1.305733 11.67967 -6.347268 2.173084 22.45948 5.085107 1.282521 -24.69044 9.506991 -0.7803301 -23.3771 10.94909 89.96769 22.13279 -15.48407 -0 0 17.83435 -14.80412 8.103856 7.351561 7.042783 -20.50853 -1.861382 -94.12685 17.04228 22.6247 0 0 -6.461619 15.28855 15.30733 -5.576227
1.858632 103.9979 16.3336 -0.843715 -5.991281 0.492218 4.356224 -5.517046 4.191802 -0 30.65157 -0 -8.929245 -7.188224 -2.579963 -4.098155 2.107808 -15.30288 -0 10.05073 -0 3.658726 -13.34088 23.23004 -0.2473181 -2.301266 4.475754 1.203506 11.69464 -6.149679 2.243824 22.59234 4.955448 1.165966 -24.51789 9.47059 -1.305102 -23.52948 10.85068 90.22665 21.11096 -15.04684 -0 0 17.9853 -15.40594 8.01234 7.636482 7.067795 -20.39134 -1.890587 -94.34356 16.8178 22.80438 0 0 -5.58469 15.09111 15.32046 -5.579363
2.279467 104.0293 20.24897 -0.8930707 -6.293089 0.5786103 4.401283 -4.775115 3.862599 -0 30.12311 -0 -9.049234 -6.901575 -2.558109 -3.93441 1.630456 -14.95679 -0 10.37995 -0 3.130159 -13.2628 23.04429 -0.1387726 -2.16396 4.412341 1.142645 11.67585 -6.014002 2.292451 22.68565 4.889892 1.113924 -24.37488 9.450112 -1.642178 -23.56345 10.78741 90.37765 20.44311 -14.76477 -0 0 18.03685 -15.82133 7.942387 7.814255 7.120759 -20.32519 -1.898062 -94.47366 16.72005 22.83193 0 0 -5.044973 14.95742 15.34094 -5.59858
2.70057 104.0549 24.23621 -0.9282144 -6.481376 0.6687702 4.446686 -4.403308 3.638859 -0 29.73381 -0 -9.132867 -6.690172 -2.541402 -3.824326 1.364138 -14.73391 -0 10.62178 -0 2.749782 -13.25991 22.92273 -0.06956694 -2.052286 4.351206 1.101778 11.64251 -5.920746 2.325921 22.75772 4.862108 1.096394 -24.26694 9.443122 -1.856407 -23.53829 10.74179 90.4746 20.01926 -14.59726 -0 0 18.02579 -16.0823 7.876926 7.909522 7.174865 -20.28945 -1.899512 -94.55007 16.70787 22.79065 0 0 -4.732157 14.86521 15.37344 -5.601804
3.122389 104.0761 28.2694 -0.9520047 -6.588853 0.7622687 4.488356 -4.235259 3.491755 -0 29.43335 -0 -9.18259 -6.55074 -2.527951 -3.748348 1.205674 -14.58699 -0 10.79649 -0 2.496389 -13.27549 22.8409 -0.02748581 -1.970516 4.303294 1.07967 11.61381 -5.863492 2.346255 22.80405 4.852092 1.094485 -24.19076 9.439029 -1.980654 -23.49877 10.71689 90.52484 19.76613 -14.49947 -0 0 17.99886 -16.24743 7.835322 7.963528 7.219552 -20.27383 -1.897625 -94.58957 16.71476 22.73065 0 0 -4.556765 14.81395 15.39846 -5.616695
3.545957 104.0936 32.33 -0.965253 -6.648404 0.8586621 4.520533 -4.17871 3.399607 -0 29.22703 -0 -9.213049 -6.458784 -2.518274 -3.699712 1.122821 -14.49661 -0 10.91495 -0 2.333588 -13.2989 22.78848 -0.002564021 -1.913823 4.267563 1.06767 11.59106 -5.829362 2.358287 22.8338 4.851294 1.09929 -24.1402 9.437618 -2.050424 -23.45901 10.70311 90.5511 19.62016 -14.44719 -0 0 17.96753 -16.34562 7.8074 7.990445 7.253351 -20.269 -1.89534 -94.6083 16.73097 22.67227 0 0 -4.46575 14.78659 15.41835 -5.631
3.97284 104.1085 36.40669 -0.9707117 -6.678564 0.9571335 4.544615 -4.171832 3.3438 -0 29.08389 -0 -9.229281 -6.403256 -2.511338 -3.668376 1.077364 -14.44084 -0 10.99277 -0 2.2345 -13.31808 22.7549 0.0116462 -1.876929 4.243442 1.062597 11.57582 -5.810842 2.364696 22.85053 4.853567 1.105403 -24.10838 9.436615 -2.086334 -23.4279 10.69733 90.56157 19.54067 -14.42019 -0 0 17.94266 -16.40361 7.792433 8.00436 7.276921 -20.26943 -1.892947 -94.61557 16.74341 22.626 0 0 -4.420857 14.77499 15.43081 -5.646959
4.404333 104.1214 40.49215 -0.9702802 -6.692167 1.057045 4.561567 -4.185801 3.31182 -0 28.98932 -0 -9.236993 -6.371621 -2.50661 -3.649036 1.054152 -14.40803 -0 11.04117 -0 2.177475 -13.33217 22.73429 0.01931338 -1.854199 4.228069 1.061218 11.56634 -5.801776 2.367744 22.85903 4.856651 1.110951 -24.08956 9.435919 -2.102779 -23.40581 10.69581 90.56395 19.50078 -14.40783 -0 0 17.92494 -16.43607 7.785405 8.010906 7.292491 -20.27197 -1.890868 -94.61708 16.75165 22.59261 0 0 -4.401641 14.77194 15.43795 -5.661491
4.84149 104.1327 44.58215 -0.9658348 -6.696677 1.157835 4.573364 -4.20424 3.294421 -0 28.92584 -0 -9.239196 -6.356125 -2.503382 -3.636994 1.040798 -14.38867 -0 11.0703 -0 2.147181 -13.34039 22.72178 0.02312171 -1.841102 4.219156 1.061984 11.56129 -5.798356 2.368784 22.86213 4.859268 1.115153 -24.07912 9.435077 -2.108272 -23.39186 10.69683 90.56171 19.48356 -14.40277 -0 0 17.91437 -16.45398 7.784021 8.01433 7.302188 -20.27502 -1.88905 -94.61596 16.75485 22.5706 0 0 -4.394983 14.77359 15.44082 -5.674937
5.285046 104.1429 48.67421 -0.9586589 -6.696697 1.259107 4.581389 -4.220589 3.285729 -0 28.88326 -0 -9.238294 -6.350593 -2.501207 -3.62953 1.032023 -14.37734 -0 11.08703 -0 2.133116 -13.34399 22.71436 0.0247256 -1.834227 4.214599 1.063753 11.55921 -5.798021 2.368738 22.86211 4.861104 1.117999 -24.07386 9.434091 -2.108099 -23.38403 10.69906 90.55737 19.47865 -14.40118 -0 0 17.90925 -16.46357 7.785924 8.016424 7.307826 -20.27779 -1.887517 -94.6139 16.75435 22.55727 0 0 -4.394075 14.77733 15.4409 -5.686798
5.735501 104.1523 52.76702 -0.949753 -6.694767 1.360577 4.586897 -4.232281 3.281858 -0 28.85337 -0 -9.235673 -6.35107 -2.499706 -3.624675 1.024461 -14.37033 -0 11.09637 -0 2.128365 -13.344 22.70992 0.02515082 -1.831165 4.212873 1.065956 11.55905 -5.799256 2.368142 22.86035 4.862117 1.11969 -24.07159 9.432918 -2.105258 -23.38057 10.70185 90.55211 19.47985 -14.40081 -0 0 17.90812 -16.46889 7.789792 8.018273 7.310792 -20.28004 -1.886208 -94.6117 16.75106 22.55014 0 0 -4.395081 14.78185 15.43918 -5.697355
6.193163 104.1609 56.85993 -0.9397787 -6.692289 1.462061 4.59074 -4.239205 3.280483 -0 28.83126 -0 -9.23227 -6.354823 -2.498636 -3.621294 1.01689 -14.36556 -0 11.10149 -0 2.128569 -13.3416 22.70714 0.02500112 -1.830302 4.212851 1.068243 11.56002 -5.801151 2.367321 22.85776 4.862457 1.120514 -24.07092 9.431615 -2.101448 -23.37995 10.70478 90.54668 19.48365 -14.40063 -0 0 17.90959 -16.47216 7.794619 8.020252 7.312087 -20.28173 -1.885088 -94.60973 16.74605 22.54712 0 0 -4.39624 14.78637 15.43643 -5.706709
6.65821 104.1689 60.95265 -0.9291883 -6.68993 1.563447 4.593545 -4.242078 3.280229 -0 28.81362 -0 -9.228605 -6.360189 -2.497825 -3.618671 1.008788 -14.36182 -0 11.10442 -0 2.131108 -13.33766 22.70522 0.02462048 -1.83061 4.213791 1.070455 11.56161 -5.803222 2.366444 22.85486 4.862291 1.120732 -24.07103 9.430223 -2.097529 -23.38108 10.70765 90.54143 19.48816 -14.40017 -0 0 17.91266 -16.47462 7.799837 8.0225 7.312396 -20.28294 -1.884113 -94.6081 16.74003 22.54668 0 0 -4.39679 14.79058 15.43315 -5.715096
